<svg width="21" height="40" viewBox="0 0 21 40" fill="none" xmlns="http://www.w3.org/2000/svg">
<path d="M1.43327 11.1582H5.31556C5.51565 11.1582 5.67786 11.3204 5.67786 11.5205V21.6158C5.67786 21.8159 5.84007 21.9781 6.04016 21.9781H14.7665C14.9666 21.9781 15.1288 21.8159 15.1288 21.6158V11.5205C15.1288 11.3204 15.291 11.1582 15.4911 11.1582H19.3734C19.6962 11.1582 19.8578 10.768 19.6296 10.5397L10.6595 1.56966C10.518 1.42818 10.2886 1.42817 10.1472 1.56966L1.17708 10.5397C0.948846 10.768 1.11049 11.1582 1.43327 11.1582Z" stroke="white" stroke-width="1.44921"/>
<path d="M5.67798 25.4907V29.8854C5.67798 30.0855 5.84019 30.2477 6.04028 30.2477H14.7666C14.9667 30.2477 15.1289 30.0855 15.1289 29.8854V25.4907C15.1289 25.2906 14.9667 25.1284 14.7666 25.1284H6.04028C5.84019 25.1284 5.67798 25.2906 5.67798 25.4907Z" stroke="white" stroke-width="1.44921"/>
<path d="M5.67798 33.7605V38.1552C5.67798 38.3553 5.84019 38.5175 6.04028 38.5175H14.7666C14.9667 38.5175 15.1289 38.3553 15.1289 38.1552V33.7605C15.1289 33.5604 14.9667 33.3982 14.7666 33.3982H6.04028C5.84019 33.3982 5.67798 33.5604 5.67798 33.7605Z" stroke="white" stroke-width="1.44921"/>
</svg>
